<?xml version="1.0" ?><svg viewBox="0 0 64 64" xmlns="http://www.w3.org/2000/svg"><g id="Outline"><g data-name="Outline" id="Outline-2"><path d="M55.74,2H39.58a1,1,0,0,0-.87.5L32,14.12,25.29,2.5a1,1,0,0,0-.87-.5H8.26a1,1,0,0,0-.87,1.5L19.83,25a20.5,20.5,0,1,0,24.34,0L56.61,3.5A1,1,0,0,0,55.74,2ZM34.83,21.22,44.78,4H49.4L38.88,22.21A20.31,20.31,0,0,0,34.83,21.22ZM40.15,4h2.32L32.63,21a14.05,14.05,0,0,0-2.34.06Zm-15,18.21L14.6,4h4.62l9.32,16.12-.77,1.32A19.67,19.67,0,0,0,25.12,22.21Zm5.73-6.09-1.16,2L21.53,4h2.32ZM10,4h2.3l11,19c-.61.29-1.19.61-1.77.95ZM50.5,41.5A18.5,18.5,0,1,1,32,23,18.52,18.52,0,0,1,50.5,41.5Zm-8-17.57c-.58-.34-1.16-.66-1.77-.95l11-19H54Z"/><path d="M29.76,33.54l-1.51,2.64a.58.58,0,0,1-.39.27l-3,.59a2.56,2.56,0,0,0-2,1.73,2.5,2.5,0,0,0,.57,2.5l2.1,2.22a.5.5,0,0,1,.14.42l-.36,3a2.48,2.48,0,0,0,1,2.33,2.59,2.59,0,0,0,2.6.28l2.81-1.26a.58.58,0,0,1,.5,0l2.81,1.27a2.59,2.59,0,0,0,2.6-.28,2.48,2.48,0,0,0,1-2.33l-.36-3a.5.5,0,0,1,.14-.42l2.1-2.22a2.5,2.5,0,0,0,.57-2.5,2.56,2.56,0,0,0-2-1.73l-3-.59a.58.58,0,0,1-.39-.27l-1.51-2.64a2.59,2.59,0,0,0-4.48,0Zm2.75,1L34,37.17a2.53,2.53,0,0,0,1.74,1.24l3,.59a.56.56,0,0,1,.43.38.47.47,0,0,1-.12.51L37,42.11a2.56,2.56,0,0,0-.68,2l.37,3a.52.52,0,0,1-.22.48.56.56,0,0,1-.6.07l-2.81-1.27a2.66,2.66,0,0,0-2.14,0L28.12,47.7a.57.57,0,0,1-.6-.07.52.52,0,0,1-.22-.48l.37-3a2.55,2.55,0,0,0-.68-2L24.9,39.89a.47.47,0,0,1-.12-.51.56.56,0,0,1,.43-.38l3-.59A2.53,2.53,0,0,0,30,37.17l1.51-2.63a.59.59,0,0,1,1,0Z"/><path d="M36.28,26.6a1,1,0,1,0-.55,1.92,13.5,13.5,0,1,1-7.46,0,1,1,0,1,0-.55-1.92,15.5,15.5,0,1,0,8.56,0Z"/><circle cx="32" cy="27" r="1"/></g></g></svg>